<svg t="1659438737503" viewBox="0 0 1024 1024" version="1.1" xmlns="http://www.w3.org/2000/svg" p-id="1876" width="512" height="512">
    <path d="M2193.94246832 793.5246942c-29.08469133-9.08896607-58.16938267-18.1779321-80.34645979-24.7219877-61.80496903 6.18049689-120.33791038 15.99658023-178.87085163 16.36013891-91.98033632 0.72711727-172.32679609-68.71258326-181.7793208-160.32936094-6.90761419-63.98632093-8.3618488-130.5175523 2.18135187-193.4131973 6.54405559-38.17365737 33.447395-79.98290114 63.25920364-106.15912335 78.16510793-69.07614191 172.32679609-67.25834869 262.48933916-28.35757407 84.70916351 36.71942275 117.0658826 110.5218271 111.97606163 201.04792887-3.63558638 68.71258326 10.90675924 139.97007703-31.99316045 202.5021633-3.99914507 5.45337963 1.81779322 20.35928391 6.54405555 28.72113268 10.17964193 17.45081478 22.54063577 33.08383638 34.17451232 49.80753391-2.90846912 5.089821-5.45337963 9.81608331-7.6347315 14.54234569z m-75.25663884-141.78787027c17.81437341-77.43799067 21.44995987-153.42174675 5.81693834-229.76906141-1.09067596-5.81693827-4.72626233-11.63387652-7.9982902-17.08725619-41.44568518-71.25749377-161.78359548-98.16083323-239.94870339-53.07956164-42.53636106 24.35842898-67.62190732 60.71429314-68.71258327 111.24894426-0.72711727 36.35586418 1.09067596 72.71172832-1.09067588 109.06759249-3.99914507 62.895645 17.08725611 115.24808937 74.89308016 141.0607529 63.25920361 28.35757405 129.42687641 26.90333948 195.23099051-9.45252465-27.99401539-39.62789198-52.71600306-74.89308016-78.16510795-110.52182701 65.07699684-26.17622215 86.89051531 21.81351849 119.97435168 58.53294125zM1683.50613559 792.07045962c-29.81180863-8.72540737-59.98717587-17.81437341-102.88709558-30.53892596-57.44226538 31.99316048-135.24381463 36.71942275-212.68180536 12.72455252-77.43799067-24.35842898-122.51926218-81.07357708-130.51755227-163.2378301-3.27202778-35.9923055 0.3635587-72.71172832-2.18135183-108.70403378-11.63387652-160.69291958 109.79470977-253.76393182 277.39524353-224.67924054 101.06930237 17.45081478 163.23783004 86.52695668 165.41918182 189.05049367 1.81779322 77.43799067 16.72369751 158.51156768-29.08469125 231.22329599-4.36270369 6.90761419 1.81779322 23.26775306 7.27117279 33.08383636 9.45252465 17.45081478 22.17707715 33.08383638 33.81095363 49.44397527-2.18135187 3.63558638-4.36270369 7.63473149-6.54405548 11.63387657z m-82.52781166-140.69719431c6.54405559-0.72711727 12.72455248-1.81779322 19.268608-2.54491051 0-55.98803084 0.3635587-111.97606156 0-167.96409235-0.72711727-72.71172832-33.81095362-122.15570357-94.52524677-141.42431163-78.89222523-25.0855463-166.14629922-6.54405559-202.86572202 47.98974071-14.90590428 22.17707715-24.35842898 51.26176849-27.26689809 78.16510796-4.72626233 40.35500923-1.09067596 81.80069437-1.45423459 122.88282079-0.3635587 62.1685277 29.08469133 107.97691655 85.79983939 128.3362005 61.07785177 21.81351849 123.97349676 22.90419443 183.23355538-14.54234564-27.26689812-40.35500923-51.26176849-75.25663877-74.52952152-109.79470973 66.53123138-29.08469133 82.52781165 27.26689812 112.33962022 58.8964999zM3022.12905377 509.94895372v-121.79214487c42.89991974-9.08896607 60.35073451 4.72626233 56.35158945 45.08127153-2.18135187 23.26775306-0.3635587 47.26262341-0.36355861 75.62019745h165.05562324v48.35329933h-167.23697515v227.95126825c-96.70659865 16.36013886-113.06673753 10.17964193-116.70232387-42.53636108 18.5414907-1.45423455 36.71942275-3.27202778 59.26005852-5.08982096v-179.96152759c-49.08041659 0-97.43371596-1.45423455-145.78701524 0.36355866-35.9923055 1.45423455-53.07956163-9.81608331-48.71685799-49.08041661 7.27117279-67.62190732 11.99743516-135.24381463 18.54149075-210.13689479h378.46454588v42.89991966h-318.47737004c-4.72626233 52.35244436-10.17964193 97.07015727-11.9974351 142.15142885-0.3635587 8.3618488 14.90590428 23.99487037 23.99487029 24.72198765 34.17451231 3.27202778 68.71258326 1.45423455 107.61335787 1.45423452zM2312.09902683 785.16284541v-246.85631761c122.15570357 0 241.76649664-0.72711727 361.37728969 1.45423458 10.90675924 0.3635587 30.53892588 19.99572529 30.90248457 31.26604314 2.90846912 70.53037644 1.45423455 141.06075292 1.45423454 214.13603989H2312.09902683z m58.53294127-147.9683671h275.94100892c-1.45423455-18.1779321-2.18135187-32.72027775-3.63558633-48.71685803h-272.30542259v48.71685803z m-2.18135187 53.80667891c1.45423455 18.1779321 2.18135187 31.62960183 3.27202779 45.80838884h274.12321577c-0.72711727-17.08725611-1.45423455-31.26604318-2.54491051-45.80838884H2368.45061623zM2374.63111322 456.14227477c-10.17964193-27.6304567-16.72369751-45.08127157-23.99487032-65.0769968 32.72027775-8.72540737 59.26005857-10.17964193 69.43970048 29.81180863 6.90761419 27.26689812 24.72198764 36.71942275 52.71600303 34.53807091 25.0855463-2.18135187 51.26176849 2.90846912 75.62019742-1.81779322 16.72369751-3.27202778 39.26433326-14.90590428 44.3541543-28.72113271 13.81522839-35.26518823 34.53807098-45.80838883 72.3481696-33.08383632-6.54405559 18.5414907-13.08811108 36.71942275-21.81351845 61.44141039h111.24894429c1.81779322 18.90504942 2.90846912 31.99316048 4.36270373 48.71685795H2259.38302378V456.50583343c36.71942275-0.3635587 72.34816969-0.3635587 115.24808944-0.36355866zM2286.28636329 365.61617306v-50.5346512H2470.2470359v-46.17194746c25.44910489 7.27117279 60.35073451 8.3618488 64.34987956 19.99572529 10.90675924 30.90248452 31.26604318 25.81266358 52.35244437 26.17622217 45.4448302 0.3635587 91.25321901 0 138.51584242 0 6.54405559 26.90333948 17.08725611 50.53465115-23.63131166 50.5346512H2286.28636329z" p-id="1877"></path>
    <path d="M2800.7218411 773.89252751c23.63131168-54.89735487 40.71856786-95.25236414 57.80582397-135.24381463 18.5414907-42.89991974 18.5414907-42.89991974 77.80154928-33.81095364-21.81351849 50.89820983-40.35500923 102.15997829-66.1676727 149.05904299-7.27117279 12.36099385-37.81009875 11.63387652-69.43970055 19.99572528zM3141.37628821 604.83775924c40.35500923-10.90675924 65.80411413-3.63558638 79.25578387 36.71942273 13.81522839 41.44568518 33.08383638 80.71001841 49.80753389 120.70146905-46.5355061 16.36013886-69.4397005-1.81779322-82.89137024-43.62703701-11.99743516-38.53721602-29.81180863-74.89308016-46.17194752-113.79385477z" p-id="1878"></path>
    <path d="M755.34092368 39.86763025s-0.72711727 0.3635587-1.45423459 1.09067588c0.72711727-0.3635587 1.45423455-1.09067596 1.45423459-1.09067588z" fill="#FFDC00" p-id="1879"></path>
    <path d="M770.24682802 130.7572906l-14.90590434-90.88966035s-9.81608331 91.98033632-118.15655847 190.50472812c-49.80753385 45.4448302-137.78872515 95.25236414-137.78872518 95.25236413l206.864867 358.10526193s19.63216668 59.26005857-6.54405552 114.88453071c-30.53892588 65.07699684-91.98033632 105.0684474-210.13689483 108.3404752-105.0684474 2.90846912-177.41661707-59.26005857-190.50472811-144.33278068-13.08811108-84.34560482 41.80924379-149.42260172 105.06844738-174.14458938 59.26005857-22.90419443 157.78445038-13.08811108 157.78445046-13.08811107l-229.76906152-387.55351188 3.27202777-39.26433328s73.80240421 9.45252465 203.59283929-16.3601389c59.26005857-11.99743516 109.06759251-31.62960183 146.15057394-49.80753387-56.71514804-24.72198764-119.61079312-38.53721602-185.41490716-38.53721603-255.58172505 0-463.17370937 207.2284257-463.1737094 463.17370936 0 255.58172505 207.2284257 463.17370937 463.1737094 463.17370937 255.58172505 0 463.17370937-207.2284257 463.17370928-463.17370937-0.72711727-155.23953995-76.3473147-291.93758914-192.68607999-376.28319401z" fill="#FFDC00" p-id="1880"></path>
    <path d="M755.34092368 39.86763025s-85.4362808 65.80411413-216.68095035 91.98033629c-129.79043508 25.81266358-203.59283923 16.36013886-203.59283925 16.36013886l-3.27202778 39.2643333L561.56416771 575.38950921s-98.52439189-9.81608331-157.78445044 13.08811107c-63.25920361 24.35842898-118.15655847 89.79898447-105.06844736 174.14458938 13.08811108 85.4362808 85.4362808 147.24124981 190.50472819 144.33278068 118.15655847-3.27202778 179.59796889-43.2634783 210.13689478-108.3404752 26.17622215-55.98803084 6.54405559-114.88453074 6.54405555-114.88453071L499.03208139 325.6247225s87.98119123-49.80753385 137.78872514-95.25236413c108.70403381-98.52439189 118.52011714-190.5047282 118.52011715-190.50472812z" fill="#0AC094" p-id="1881"></path>
</svg>
